# xmcd
#
# Track frame offsets:
#	150
#	19280
#	34537
#	54307
#	78200
#	99372
#	117655
#	133137
#	144255
#	162465
#	186817
#	206927
#
# Disc length: 3018 seconds
#
# Revision: 1
# Processed by: cddbd v1.5.1PL0 Copyright (c) Steve Scherf et al.
# Submitted via: audiograbber 1.83.01
#
DISCID=a40bc80c
DTITLE=The Memphis Snake Doctors - LIVE! From Sun Studios...
DYEAR=2005
DGENRE=Blues/Rock
TTITLE0=Whoa Momma
TTITLE1=Black Cat Bone
TTITLE2=Get Strange
TTITLE3=Never Loved a Woman
TTITLE4=Little Sister
TTITLE5=Shake, Rattle and Roll
TTITLE6=Texas Guitar Slinger
TTITLE7=Hoosier Daddy
TTITLE8=Crosscut Saw
TTITLE9=Some Else is Stepping In
TTITLE10=Reefer Headed Woman
TTITLE11=Traveling Riverside Blues
EXTD=All takes recorded live in the legendary Sun Studios "Elvis Room"
EXTT0=Trad. Arr., C. Burnett, "Ooh, Baby"
EXTT1=H. Wilson, L. Semien
EXTT2=By Tom Stafford
EXTT3=Trad Arr., P. Green, "Drifting"
EXTT4=D. Pomus, M. Shuman
EXTT5=C. Calhoun
EXTT6=By Tom Stafford
EXTT7=By Tom Stafford
EXTT8=R. Ford
EXTT9=D. LaSalle
EXTT10=W. Gillum, trad. 
EXTT11=R. Johnson, trad. 
PLAYORDER=
